# xmcd CD database file
#
# Track frame offsets:
#	150
#	16212
#	31406
#	42510
#	57135
#	70217
#	83781
#	97088
#	110929
#	122737
#	135424
#	150107
#	162114
#	174676
#	186290
#	201595
#	216107
#
# Disc length: 3033 seconds
#
# Revision: 0
# Processed by: cddbd v1.5.2PL0 Copyright (c) Steve Scherf et al.
# Submitted via: CDex 1.70beta2
#
DISCID=ee0bd711
DTITLE=Glenn Miller - The Best Of Glenn Miller
DYEAR=2010
DGENRE=Jazz
TTITLE0=In The Mood
TTITLE1=Moonlight Serenade
TTITLE2=Over The Rainbow
TTITLE3=Pagan Love Song
TTITLE4=Stairway To The Stars
TTITLE5=Beat My Daddy, Eight To The Bar
TTITLE6=Bluberry Hill
TTITLE7=Careless
TTITLE8=Fools Rush In
TTITLE9=Imagination
TTITLE10=Pennsylvania 6-5000
TTITLE11=Say "Si Si"
TTITLE12=Say It
TTITLE13=Shake Down The Stars
TTITLE14=Stardust
TTITLE15=The Nearness Of You
TTITLE16=The Woodpecker Song
EXTD=YEAR: 2010
EXTT0=
EXTT1=
EXTT2=
EXTT3=
EXTT4=
EXTT5=
EXTT6=
EXTT7=
EXTT8=
EXTT9=
EXTT10=
EXTT11=
EXTT12=
EXTT13=
EXTT14=
EXTT15=
EXTT16=
PLAYORDER=
